<?xml version="1.0" encoding="utf-8"?>
<!-- Generator: Adobe Illustrator 24.0.0, SVG Export Plug-In . SVG Version: 6.00 Build 0)  -->
<svg version="1.1" id="Capa_1" xmlns="http://www.w3.org/2000/svg" xmlns:xlink="http://www.w3.org/1999/xlink" x="0px" y="0px"
	 viewBox="0 0 1366 768" style="enable-background:new 0 0 1366 768;" xml:space="preserve">
<style type="text/css">
	.st0{opacity:0.9;}
	.st1{fill:#0071BC;}
	.st2{fill:#0000FF;}
	.st3{fill:#00FFFF;}
	.st4{fill:#FFFF00;}
	.st5{fill:#FBB03B;}
	.st6{fill:#F7931E;}
	.st7{fill:#ED1C24;}
	.st8{fill:#662D91;}
</style>
<g class="st0">
	<g class="st0">
		<polygon class="st1" points="614.5,217.5 765.79,217.5 614.5,368.79 		"/>
		<path d="M764.59,218L615,367.59V218H764.59 M767,217H614v153L767,217L767,217z"/>
	</g>
	<g class="st0">
		<polygon class="st2" points="516.36,252.86 632.25,155.61 613.61,368.75 		"/>
		<path d="M631.65,156.77l-18.44,210.74l-96.15-114.59L631.65,156.77 M632.86,154.45l-117.2,98.35L614,370L632.86,154.45
			L632.86,154.45z"/>
	</g>
	<g class="st0">
		<polygon class="st3" points="463.9,343.03 490.18,194.03 612.9,369.3 		"/>
		<path d="M490.46,195.31L611.8,368.6l-147.31-25.98L490.46,195.31 M489.89,192.76l-26.57,150.68L614,370L489.89,192.76
			L489.89,192.76z"/>
	</g>
	<g class="st0">
		<polygon class="st4" points="406.03,314.79 612.7,370.17 481.68,445.82 		"/>
		<path d="M407.07,315.59l204.34,54.75l-129.55,74.79L407.07,315.59 M405,314l76.5,132.5L614,370L405,314L405,314z"/>
	</g>
	<g class="st0">
		<polygon points="419.2,461.39 613.12,370.96 561.37,513.13 		"/>
		<path d="M612.23,371.93l-51.16,140.56l-140.56-51.16L612.23,371.93 M614,370l-196.1,91.44l143.77,52.33L614,370L614,370z"/>
	</g>
	<g class="st0">
		<polygon class="st5" points="613.94,371.31 665.69,513.47 523.52,565.22 		"/>
		<path d="M613.89,372.61l51.16,140.56l-140.56,51.16L613.89,372.61 M614,370l-91.44,196.1l143.77-52.33L614,370L614,370z"/>
	</g>
	<g class="st0">
		<polygon class="st6" points="614.8,371.04 745.82,446.68 670.17,577.71 		"/>
		<path d="M615.59,372.07l129.55,74.79l-74.79,129.55L615.59,372.07 M614,370l56,209l76.5-132.5L614,370L614,370z"/>
	</g>
	<g class="st0">
		<polygon class="st7" points="615.28,370.28 764.27,344.01 790.54,493.01 		"/>
		<path d="M763.86,344.59l25.98,147.31L616.55,370.57L763.86,344.59 M764.68,343.43L614,370l177.24,124.11L764.68,343.43
			L764.68,343.43z"/>
	</g>
	<g class="st0">
		<polygon class="st8" points="712.41,253.5 828.3,350.75 615.16,369.4 		"/>
		<path d="M712.47,254.2l114.59,96.15l-210.74,18.44L712.47,254.2 M712.35,252.8L614,370l215.55-18.86L712.35,252.8L712.35,252.8z"
			/>
	</g>
</g>
<g class="st0">
	<g class="st0">
		<polygon class="st1" points="614.5,217.5 765.79,217.5 614.5,368.79 		"/>
		<path d="M764.59,218L615,367.59V218H764.59 M767,217H614v153L767,217L767,217z"/>
	</g>
	<g class="st0">
		<polygon class="st2" points="516.36,252.86 632.25,155.61 613.61,368.75 		"/>
		<path d="M631.65,156.77l-18.44,210.74l-96.15-114.59L631.65,156.77 M632.86,154.45l-117.2,98.35L614,370L632.86,154.45
			L632.86,154.45z"/>
	</g>
	<g class="st0">
		<polygon class="st3" points="463.9,343.03 490.18,194.03 612.9,369.3 		"/>
		<path d="M490.46,195.31L611.8,368.6l-147.31-25.98L490.46,195.31 M489.89,192.76l-26.57,150.68L614,370L489.89,192.76
			L489.89,192.76z"/>
	</g>
	<g class="st0">
		<polygon class="st4" points="406.03,314.79 612.7,370.17 481.68,445.82 		"/>
		<path d="M407.07,315.59l204.34,54.75l-129.55,74.79L407.07,315.59 M405,314l76.5,132.5L614,370L405,314L405,314z"/>
	</g>
	<g class="st0">
		<polygon points="419.2,461.39 613.12,370.96 561.37,513.13 		"/>
		<path d="M612.23,371.93l-51.16,140.56l-140.56-51.16L612.23,371.93 M614,370l-196.1,91.44l143.77,52.33L614,370L614,370z"/>
	</g>
	<g class="st0">
		<polygon class="st5" points="613.94,371.31 665.69,513.47 523.52,565.22 		"/>
		<path d="M613.89,372.61l51.16,140.56l-140.56,51.16L613.89,372.61 M614,370l-91.44,196.1l143.77-52.33L614,370L614,370z"/>
	</g>
	<g class="st0">
		<polygon class="st6" points="614.8,371.04 745.82,446.68 670.17,577.71 		"/>
		<path d="M615.59,372.07l129.55,74.79l-74.79,129.55L615.59,372.07 M614,370l56,209l76.5-132.5L614,370L614,370z"/>
	</g>
	<g class="st0">
		<polygon class="st7" points="615.28,370.28 764.27,344.01 790.54,493.01 		"/>
		<path d="M763.86,344.59l25.98,147.31L616.55,370.57L763.86,344.59 M764.68,343.43L614,370l177.24,124.11L764.68,343.43
			L764.68,343.43z"/>
	</g>
	<g class="st0">
		<polygon class="st8" points="712.41,253.5 828.3,350.75 615.16,369.4 		"/>
		<path d="M712.47,254.2l114.59,96.15l-210.74,18.44L712.47,254.2 M712.35,252.8L614,370l215.55-18.86L712.35,252.8L712.35,252.8z"
			/>
	</g>
</g>
</svg>
